<?xml version="1.0" encoding="UTF-8"?>
<svg width="18px" height="15px" viewBox="0 0 18 15" version="1.1" xmlns="http://www.w3.org/2000/svg" xmlns:xlink="http://www.w3.org/1999/xlink">
    <!-- Generator: Sketch 40.3 (33839) - http://www.bohemiancoding.com/sketch -->
    <title></title>
    <desc>Created with Sketch.</desc>
    <defs></defs>
    <g id="Symbols" stroke="none" stroke-width="1" fill="none" fill-rule="evenodd">
        <g id="Menu-/-Main" transform="translate(-1248.000000, -59.000000)" fill="#FFFFFF">
            <g id="Group-2">
                <path d="M1265.14286,71.1428571 L1265.14286,72.5714286 C1265.14286,72.7648819 1265.07217,72.932291 1264.9308,73.0736607 C1264.78943,73.2150305 1264.62202,73.2857143 1264.42857,73.2857143 L1248.71429,73.2857143 C1248.52083,73.2857143 1248.35342,73.2150305 1248.21205,73.0736607 C1248.07068,72.932291 1248,72.7648819 1248,72.5714286 L1248,71.1428571 C1248,70.9494038 1248.07068,70.7819948 1248.21205,70.640625 C1248.35342,70.4992552 1248.52083,70.4285714 1248.71429,70.4285714 L1264.42857,70.4285714 C1264.62202,70.4285714 1264.78943,70.4992552 1264.9308,70.640625 C1265.07217,70.7819948 1265.14286,70.9494038 1265.14286,71.1428571 L1265.14286,71.1428571 Z M1265.14286,65.4285714 L1265.14286,66.8571429 C1265.14286,67.0505962 1265.07217,67.2180052 1264.9308,67.359375 C1264.78943,67.5007448 1264.62202,67.5714286 1264.42857,67.5714286 L1248.71429,67.5714286 C1248.52083,67.5714286 1248.35342,67.5007448 1248.21205,67.359375 C1248.07068,67.2180052 1248,67.0505962 1248,66.8571429 L1248,65.4285714 C1248,65.2351181 1248.07068,65.067709 1248.21205,64.9263393 C1248.35342,64.7849695 1248.52083,64.7142857 1248.71429,64.7142857 L1264.42857,64.7142857 C1264.62202,64.7142857 1264.78943,64.7849695 1264.9308,64.9263393 C1265.07217,65.067709 1265.14286,65.2351181 1265.14286,65.4285714 L1265.14286,65.4285714 Z M1265.14286,59.7142857 L1265.14286,61.1428571 C1265.14286,61.3363105 1265.07217,61.5037195 1264.9308,61.6450893 C1264.78943,61.786459 1264.62202,61.8571429 1264.42857,61.8571429 L1248.71429,61.8571429 C1248.52083,61.8571429 1248.35342,61.786459 1248.21205,61.6450893 C1248.07068,61.5037195 1248,61.3363105 1248,61.1428571 L1248,59.7142857 C1248,59.5208324 1248.07068,59.3534233 1248.21205,59.2120536 C1248.35342,59.0706838 1248.52083,59 1248.71429,59 L1264.42857,59 C1264.62202,59 1264.78943,59.0706838 1264.9308,59.2120536 C1265.07217,59.3534233 1265.14286,59.5208324 1265.14286,59.7142857 L1265.14286,59.7142857 Z" id=""></path>
            </g>
        </g>
    </g>
</svg>