<?xml version="1.0" encoding="UTF-8"?>
<svg width="48px" height="48px" viewBox="0 0 48 48" version="1.1" xmlns="http://www.w3.org/2000/svg" xmlns:xlink="http://www.w3.org/1999/xlink">
    <!-- Generator: Sketch 40.3 (33839) - http://www.bohemiancoding.com/sketch -->
    <title>Page 1</title>
    <desc>Created with Sketch.</desc>
    <defs>
        <polygon id="path-1" points="47.9095775 47.8309352 47.9095775 0.136056338 3.38028167e-05 0.136056338 3.38028167e-05 47.8309352 47.9095775 47.8309352"></polygon>
    </defs>
    <g id="Welcome" stroke="none" stroke-width="1" fill="none" fill-rule="evenodd">
        <g id="m.search---text" transform="translate(-12.000000, -4.000000)">
            <g id="Page-1" transform="translate(12.000000, 4.000000)">
                <polygon id="Fill-1" fill="#FEFEFE" points="29.7306423 24.9275493 38.2410085 24.9275493 38.2410085 21.9138592 29.7306423 21.9138592 29.7306423 18.2972958 39.0125577 18.2972958 39.0125577 15.2837746 32.7404451 15.2837746 26.0900789 21.8868169 26.0900789 32.7873803 39.3982479 32.7873803 39.3982479 29.7735211 29.7306423 29.7735211"></polygon>
                <g id="Group-4" transform="translate(0.000000, 0.032958)">
                    <mask id="mask-2" fill="white">
                        <use xlink:href="#path-1"></use>
                    </mask>
                    <g id="Clip-3"></g>
                    <path d="M47.6958085,0.136005634 L22.0714141,25.760062 L21.8016676,26.0325127 C21.4316958,24.8541465 20.5810479,23.9627662 19.2404282,23.3624282 C18.9176113,23.2152169 17.1953577,22.7695268 14.0760338,22.0226535 C12.2248225,21.584231 11.2979493,20.8689634 11.2979493,19.8782028 C11.3146817,19.1637803 11.6880338,18.6117803 12.4186817,18.2216958 C13.0183437,17.9124 13.7102873,17.7582592 14.4911324,17.7582592 C15.3852169,17.7582592 16.1464563,17.9700338 16.7805972,18.392231 C17.4950197,18.8624282 17.8925408,19.5366254 17.9728225,20.4139775 L21.4834141,20.4139775 C21.4014423,18.5622592 20.6317521,17.1165127 19.1701183,16.0774141 C17.8832451,15.1510479 16.3247662,14.6882873 14.4911324,14.6882873 C13.286738,14.6882873 12.1749634,14.9076676 11.1524282,15.3460901 C10.0795268,15.800569 9.2784,16.4387662 8.75209014,17.2591606 C8.22392113,18.0797239 7.95113239,19.0174141 7.93625915,20.072231 C7.9188507,22.136569 8.82087887,23.5985408 10.6403155,24.4591606 C11.0136676,24.6378085 12.7188507,25.0917803 15.7568789,25.8241183 C17.5916958,26.2618648 18.5020056,27.0009634 18.4861183,28.040231 C18.4861183,28.7059775 18.134062,29.2415831 17.426907,29.648062 C16.7195831,30.0547099 15.8953014,30.2583718 14.9533859,30.2583718 C13.9310197,30.2583718 13.0763155,30.0222592 12.3948507,29.5515549 C11.6160338,29.0320056 11.2085408,28.3011887 11.1769352,27.3579211 L7.64335775,27.3579211 C7.76572394,31.0268789 10.0967662,32.972907 14.6258366,33.2061465 L3.38028167e-05,47.8309352 L0.213329577,47.8309352 L47.9096113,0.136005634 L47.6958085,0.136005634 Z" id="Fill-2" fill="#FEFEFE" mask="url(#mask-2)"></path>
                </g>
            </g>
        </g>
    </g>
</svg>