<?xml version="1.0" encoding="UTF-8"?>
<svg width="20px" height="17px" viewBox="0 0 20 17" version="1.1" xmlns="http://www.w3.org/2000/svg" xmlns:xlink="http://www.w3.org/1999/xlink">
    <!-- Generator: Sketch 40.3 (33839) - http://www.bohemiancoding.com/sketch -->
    <title></title>
    <desc>Created with Sketch.</desc>
    <defs></defs>
    <g id="Symbols" stroke="none" stroke-width="1" fill="none" fill-rule="evenodd">
        <g id="Menu-/-Main" transform="translate(-1160.000000, -57.000000)" fill="#FFFFFF">
            <g id="Group-2">
                <path d="M1178.57143,71.6428571 L1178.57143,63.0714286 C1178.33333,63.3392871 1178.07664,63.5848203 1177.80134,63.8080357 C1175.80728,65.3407815 1174.22248,66.5982094 1173.04688,67.5803571 C1172.66741,67.9002992 1172.35863,68.1495527 1172.12054,68.328125 C1171.88244,68.5066973 1171.56064,68.6871271 1171.15513,68.8694196 C1170.74963,69.0517122 1170.36831,69.1428571 1170.01116,69.1428571 L1170,69.1428571 L1169.98884,69.1428571 C1169.63169,69.1428571 1169.25037,69.0517122 1168.84487,68.8694196 C1168.43936,68.6871271 1168.11756,68.5066973 1167.87946,68.328125 C1167.64137,68.1495527 1167.33259,67.9002992 1166.95313,67.5803571 C1165.77752,66.5982094 1164.19272,65.3407815 1162.19866,63.8080357 C1161.92336,63.5848203 1161.66667,63.3392871 1161.42857,63.0714286 L1161.42857,71.6428571 C1161.42857,71.7395838 1161.46391,71.8232883 1161.5346,71.8939732 C1161.60528,71.9646581 1161.68899,72 1161.78571,72 L1178.21429,72 C1178.31101,72 1178.39472,71.9646581 1178.4654,71.8939732 C1178.53609,71.8232883 1178.57143,71.7395838 1178.57143,71.6428571 L1178.57143,71.6428571 Z M1178.57143,59.9129464 L1178.57143,59.7901786 L1178.57143,59.6395089 C1178.57143,59.6060266 1178.56957,59.557664 1178.56585,59.4944196 C1178.56213,59.4311753 1178.55097,59.3846728 1178.53237,59.3549107 C1178.51376,59.3251487 1178.4933,59.2916669 1178.47098,59.2544643 C1178.44866,59.2172617 1178.41518,59.1893602 1178.37054,59.1707589 C1178.32589,59.1521576 1178.27381,59.1428571 1178.21429,59.1428571 L1161.78571,59.1428571 C1161.68899,59.1428571 1161.60528,59.1781991 1161.5346,59.2488839 C1161.46391,59.3195688 1161.42857,59.4032733 1161.42857,59.5 C1161.42857,60.7500062 1161.97544,61.8065433 1163.0692,62.6696429 C1164.50522,63.8006009 1165.99702,64.9799046 1167.54464,66.2075893 C1167.58929,66.2447919 1167.71949,66.3545378 1167.93527,66.5368304 C1168.15104,66.7191229 1168.32217,66.8586305 1168.44866,66.9553571 C1168.57515,67.0520838 1168.7407,67.1692701 1168.94531,67.3069196 C1169.14993,67.4445691 1169.3378,67.5468747 1169.50893,67.6138393 C1169.68006,67.6808039 1169.84003,67.7142857 1169.98884,67.7142857 L1170,67.7142857 L1170.01116,67.7142857 C1170.15997,67.7142857 1170.31994,67.6808039 1170.49107,67.6138393 C1170.6622,67.5468747 1170.85007,67.4445691 1171.05469,67.3069196 C1171.2593,67.1692701 1171.42485,67.0520838 1171.55134,66.9553571 C1171.67783,66.8586305 1171.84896,66.7191229 1172.06473,66.5368304 C1172.28051,66.3545378 1172.41071,66.2447919 1172.45536,66.2075893 C1174.00298,64.9799046 1175.49478,63.8006009 1176.9308,62.6696429 C1177.33259,62.3497008 1177.70647,61.9200176 1178.05246,61.3805804 C1178.39844,60.8411431 1178.57143,60.3519367 1178.57143,59.9129464 L1178.57143,59.9129464 Z M1180,59.5 L1180,71.6428571 C1180,72.133931 1179.82515,72.5543137 1179.47545,72.9040179 C1179.12574,73.253722 1178.70536,73.4285714 1178.21429,73.4285714 L1161.78571,73.4285714 C1161.29464,73.4285714 1160.87426,73.253722 1160.52455,72.9040179 C1160.17485,72.5543137 1160,72.133931 1160,71.6428571 L1160,59.5 C1160,59.0089261 1160.17485,58.5885434 1160.52455,58.2388393 C1160.87426,57.8891352 1161.29464,57.7142857 1161.78571,57.7142857 L1178.21429,57.7142857 C1178.70536,57.7142857 1179.12574,57.8891352 1179.47545,58.2388393 C1179.82515,58.5885434 1180,59.0089261 1180,59.5 L1180,59.5 Z" id=""></path>
            </g>
        </g>
    </g>
</svg>