<?xml version="1.0" encoding="UTF-8"?>
<svg width="288px" height="74px" viewBox="0 0 288 74" version="1.1" xmlns="http://www.w3.org/2000/svg" xmlns:xlink="http://www.w3.org/1999/xlink">
    <!-- Generator: Sketch 40.3 (33839) - http://www.bohemiancoding.com/sketch -->
    <title>Page 1</title>
    <desc>Created with Sketch.</desc>
    <defs>
        <polygon id="path-1" points="20.8822983 27.4311563 20.8822983 0.50428125 0.55008692 0.50428125 0.55008692 27.4311562 20.8822983 27.4311562"></polygon>
        <polygon id="path-3" points="1.51418055e-20 0.20154375 1.51418055e-20 28.7259188 21.9648193 28.7259188 21.9648193 0.20154375 0 0.20154375"></polygon>
        <polygon id="path-5" points="73.2380932 0.3144375 0.0419534149 0.3144375 0.0419534149 73.687275 73.2380932 73.687275 73.2380932 0.3144375"></polygon>
    </defs>
    <g id="Page-1" stroke="none" stroke-width="1" fill="none" fill-rule="evenodd">
        <g>
            <polygon id="Fill-1" fill="#BBBDBF" points="166.687621 38.6507812 179.689828 38.6507812 179.689828 34.0140937 166.687621 34.0140937 166.687621 28.4509687 180.869104 28.4509687 180.869104 23.8148437 171.285738 23.8148437 161.125861 33.9730312 161.125861 50.7417188 181.457905 50.7417188 181.457905 46.1055937 166.687621 46.1055937"></polygon>
            <g id="Group-29" transform="translate(0.000000, 0.248063)">
                <path d="M187.719857,42.1858687 C187.719857,43.7063063 188.529876,46.5621188 193.392227,46.5621188 C196.044062,46.5621188 198.991416,45.8944313 198.991416,43.0757438 C198.991416,40.9613062 196.96525,40.4421187 194.129065,39.7373062 L188.751095,38.4024937 C184.957412,37.4754937 182.783767,35.2125562 182.783767,31.1333062 C182.783767,28.1661187 184.404364,22.8617437 193.060398,22.8617437 C201.238242,22.8617437 203.447639,28.2769312 203.447639,31.5782437 L198.107657,31.5782437 C197.959618,30.3542437 197.517739,27.4978687 192.655388,27.4978687 C190.519172,27.4978687 187.977387,28.3140562 187.977387,30.7249312 C187.977387,32.8388062 189.708594,33.2843062 190.813572,33.5436187 L197.333948,35.1388687 C200.980153,36.0658687 204.331957,37.5491812 204.331957,42.3709312 C204.331957,50.4939938 196.155231,51.1976813 193.797795,51.1976813 C184.073094,51.1976813 182.378757,45.5237438 182.378757,42.1858687 L187.719857,42.1858687 Z" id="Fill-2" fill="#BBBDBF"></path>
                <polygon id="Fill-4" fill="#BBBDBF" points="217.63024 50.4937688 212.067921 50.4937688 212.067921 28.2030187 204.001245 28.2030187 204.001245 23.5668937 225.696915 23.5668937 225.696915 28.2030187 217.63024 28.2030187"></polygon>
                <path d="M231.147619,40.2940125 L238.294224,40.2940125 L234.647461,29.6492625 L234.573721,29.6492625 L231.147619,40.2940125 Z M237.888655,23.56695 L247.281528,50.493825 L241.24046,50.493825 L239.509811,44.9301375 L229.674501,44.9301375 L227.795815,50.493825 L221.939654,50.493825 L231.442578,23.56695 L237.888655,23.56695 Z" id="Fill-6" fill="#BBBDBF"></path>
                <polygon id="Fill-8" fill="#BBBDBF" points="257.890044 50.4937688 252.327725 50.4937688 252.327725 28.2030187 244.26105 28.2030187 244.26105 23.5668937 265.956719 23.5668937 265.956719 28.2030187 257.890044 28.2030187"></polygon>
                <g id="Group-12" transform="translate(267.027062, 23.062500)">
                    <mask id="mask-2" fill="white">
                        <use xlink:href="#path-1"></use>
                    </mask>
                    <g id="Clip-11"></g>
                    <polygon id="Fill-10" fill="#BBBDBF" mask="url(#mask-2)" points="20.2933305 0.50428125 20.2933305 5.14040625 6.11184723 5.14040625 6.11184723 10.7035313 19.1146127 10.7035313 19.1146127 15.3402188 6.11184723 15.3402188 6.11184723 22.7950313 20.8826894 22.7950313 20.8826894 27.4311563 0.55008692 27.4311563 0.55008692 0.50428125"></polygon>
                </g>
                <g id="Group-15" transform="translate(0.000000, 22.500000)">
                    <mask id="mask-4" fill="white">
                        <use xlink:href="#path-3"></use>
                    </mask>
                    <g id="Clip-14"></g>
                    <path d="M21.9648193,19.9171688 C21.9648193,21.7661063 21.5542233,23.3039813 20.7347072,24.5279813 C19.8174302,25.8521063 18.5264269,26.9006063 16.8633735,27.6768563 C15.3019914,28.3766063 13.6489933,28.7259188 11.9116415,28.7259188 C4.16841534,28.6764188 0.200437887,25.6653563 -0.000111726804,19.6921688 L5.39964472,19.6921688 C5.44824588,21.1434188 6.06832964,22.2672938 7.26045464,23.0666063 C8.30230709,23.7911063 9.60560026,24.1533563 11.1697755,24.1533563 C12.6082581,24.1533563 13.8674192,23.8406063 14.9467001,23.2151063 C16.0254224,22.5896063 16.5661802,21.7661063 16.5661802,20.7417938 C16.5913187,19.1431688 15.2019959,18.0063563 12.3959772,17.3330438 C7.75484575,16.2057938 5.14825941,15.5071688 4.58012861,15.2326688 C1.79924845,13.9085438 0.422215593,11.6596688 0.44679549,8.48435625 C0.472492655,6.86154375 0.888675,5.41873125 1.69310799,4.15648125 C2.49977552,2.89366875 3.72262539,1.91210625 5.36054034,1.21291875 C6.92527423,0.53904375 8.62463892,0.20154375 10.4608689,0.20154375 C13.2640945,0.20154375 15.6483445,0.91310625 17.6080326,2.33791875 C19.8431273,3.93654375 21.0207278,6.16066875 21.1475378,9.00973125 L15.7852098,9.00973125 C15.6595171,7.65973125 15.0517233,6.62248125 13.9595938,5.89910625 C12.9937156,5.24941875 11.8267291,4.92429375 10.4608689,4.92429375 C9.26930258,4.92429375 8.21460155,5.16110625 7.29788312,5.63698125 C6.17838054,6.23716875 5.60801521,7.08654375 5.58343531,8.18623125 C5.58343531,9.70948125 7.00013119,10.8097313 9.82737796,11.4836063 C14.5930848,12.6327938 17.2236924,13.3190438 17.7214353,13.5451688 C20.5486821,14.8203563 21.9648193,16.9443563 21.9648193,19.9171688" id="Fill-13" fill="#FEFEFE" mask="url(#mask-4)"></path>
                </g>
                <path d="M43.3317885,37.5078938 C43.3317885,30.9603938 40.8603916,27.6737063 35.9215082,27.6478313 C33.5897698,27.6478313 31.7781197,28.6113938 30.4882338,30.5357063 C29.3709657,32.2091438 28.7989245,34.2583313 28.7749032,36.6821438 C28.7749032,39.2814563 29.4083942,41.5055813 30.6737003,43.3556438 C32.0887202,45.4779563 34.0389116,46.5528938 36.5198053,46.5776438 C38.4303336,46.5776438 40.0179715,45.8036438 41.2838362,44.2533938 C42.6480205,42.5799563 43.3317885,40.3322063 43.3317885,37.5078938 M48.8790244,37.1698313 C48.8790244,41.7435188 47.7237692,45.2912063 45.4154934,47.8140188 C43.2066545,50.2136438 40.2028794,51.4134563 36.4075198,51.4134563 C32.1635772,51.4134563 28.9050649,50.0780813 26.6342177,47.4017063 C24.363929,44.7298313 23.2287847,41.0437688 23.2287847,36.3440813 C23.2287847,32.3486438 24.370074,29.0985188 26.6543285,26.5993313 C29.0112054,24.0017063 32.1635772,22.6888313 36.1086506,22.6635188 C39.6090514,22.6635188 42.5379696,23.8262063 44.8937293,26.1498938 C47.5494754,28.7992688 48.8790244,32.4723938 48.8790244,37.1698313" id="Fill-16" fill="#FEFEFE"></path>
                <polygon id="Fill-18" fill="#FEFEFE" points="69.0576114 50.476725 50.1461739 50.476725 50.1461739 23.5245375 55.7677081 23.5245375 55.7677081 45.5661 69.0576114 45.5661"></polygon>
                <polygon id="Fill-20" fill="#FEFEFE" points="86.3343182 23.5250437 77.2503704 50.4766687 71.9662512 50.4766687 62.9566017 23.5250437 68.9116403 23.5250437 74.7208755 42.4537312 80.5267589 23.5250437"></polygon>
                <polygon id="Fill-22" fill="#FEFEFE" points="107.815807 50.476725 87.4893499 50.476725 87.4893499 23.5245375 107.183434 23.5245375 107.183434 28.2861 92.962846 28.2861 92.962846 34.02135 106.028737 34.02135 106.028737 38.7446625 92.962846 38.7446625 92.962846 45.7151625 107.815807 45.7151625"></polygon>
                <path d="M121.99852,28.2112875 L114.887109,28.2112875 L114.887109,35.408475 L121.848806,35.408475 C123.139809,35.408475 124.15764,35.0332875 124.903416,34.2829125 C125.57266,33.6096 125.907282,32.78385 125.907282,31.8096 C125.907282,30.83535 125.584391,30.010725 124.93861,29.33685 C124.19451,28.58535 123.212431,28.2112875 121.99852,28.2112875 L121.99852,28.2112875 Z M130.523833,50.476725 L125.051455,50.476725 L125.051455,43.5416625 C125.051455,42.1680375 124.691136,41.2185375 123.971615,40.693725 C123.349855,40.1936625 122.307444,39.944475 120.84494,39.944475 L114.887109,39.944475 L114.887109,50.476725 L109.417523,50.476725 L109.417523,23.5251 L123.004619,23.5251 C125.658131,23.5251 127.769209,24.3491625 129.33115,26.0006625 C130.723824,27.4744125 131.415972,29.2474125 131.415972,31.3230375 C131.415972,32.7461625 131.068502,34.0084125 130.375237,35.1075375 C129.62946,36.2831625 128.587049,37.1077875 127.247445,37.581975 C128.539007,38.007225 129.431145,38.6811 129.928888,39.60585 C130.324401,40.356225 130.523833,41.4424125 130.523833,42.8677875 L130.523833,50.476725 Z" id="Fill-24" fill="#FEFEFE"></path>
                <g id="Group-28" transform="translate(121.223582, 0.000000)">
                    <mask id="mask-6" fill="white">
                        <use xlink:href="#path-5"></use>
                    </mask>
                    <g id="Clip-27"></g>
                    <path d="M72.9112923,0.3142125 L33.7622202,39.73365 L33.3505069,40.1527125 C32.7851693,38.3403375 31.4857865,36.9684 29.4372756,36.0453375 C28.9440017,35.81865 26.3128355,35.1329625 21.5471287,33.983775 C18.7187646,33.3099 17.3026274,32.20965 17.3026274,30.685275 C17.3283245,29.58615 17.8986899,28.7373375 19.0148407,28.13715 C19.9315591,27.6607125 20.9884947,27.4239 22.1811783,27.4239 C23.5475971,27.4239 24.7106731,27.7495875 25.6787859,28.399275 C26.7709154,29.12265 27.3781506,30.1599 27.5004914,31.5093375 L32.8639367,31.5093375 C32.7388026,28.6608375 31.562878,26.4367125 29.3294592,24.8380875 C27.3641847,23.413275 24.9827279,22.70115 22.1811783,22.70115 C20.3415965,22.70115 18.6427904,23.03865 17.0808497,23.7130875 C15.4412588,24.412275 14.2172917,25.3938375 13.4134173,26.6560875 C12.6061912,27.9183375 12.1894502,29.36115 12.1671048,30.9834 C12.1402904,34.159275 13.5184405,36.40815 16.2982034,37.732275 C16.8685687,38.0073375 19.4734792,38.7059625 24.1151693,39.83265 C26.9183948,40.5059625 28.3093935,41.6433375 28.2848136,43.2414 C28.2848136,44.266275 27.746849,45.089775 26.6664508,45.715275 C25.5860526,46.3402125 24.3263329,46.653525 22.8872917,46.653525 C21.325351,46.653525 20.0198233,46.2907125 18.9785294,45.5662125 C17.788639,44.7669 17.1663207,43.643025 17.1182782,42.191775 L11.719639,42.191775 C11.9062227,47.8359 15.4675146,50.8300875 22.3873142,51.1884 L0.0419534149,73.687275 L0.367637049,73.687275 L73.2380932,0.3142125 L72.9112923,0.3142125 Z" id="Fill-26" fill="#FEFEFE" mask="url(#mask-6)"></path>
                </g>
            </g>
        </g>
    </g>
</svg>